<svg xmlns="http://www.w3.org/2000/svg" version="1.1" xmlns:xlink="http://www.w3.org/1999/xlink" xmlns:svgjs="http://svgjs.dev/svgjs" width="1440" height="560" preserveAspectRatio="none" viewBox="0 0 1440 560"><g mask="url(&quot;#SvgjsMask1000&quot;)" fill="none"><rect width="1440" height="560" x="0" y="0" fill="#0e2a47"></rect><path d="M 0,12 C 57.6,59.2 172.8,234.4 288,248 C 403.2,261.6 460.8,95.2 576,80 C 691.2,64.8 748.8,180.6 864,172 C 979.2,163.4 1036.8,38.4 1152,37 C 1267.2,35.6 1382.4,139.4 1440,165L1440 560L0 560z" fill="#184a7e"></path><path d="M 0,476 C 96,442.8 288,294.6 480,310 C 672,325.4 768,548.6 960,553 C 1152,557.4 1344,376.2 1440,332L1440 560L0 560z" fill="#2264ab"></path></g><defs><mask id="SvgjsMask1000"><rect width="1440" height="560" fill="#ffffff"></rect></mask></defs></svg>